<?xml version="1.0" encoding="utf-8"?>
<!-- Generator: Adobe Illustrator 24.0.0, SVG Export Plug-In . SVG Version: 6.00 Build 0)  -->
<svg version="1.1" id="Layer_1" xmlns="http://www.w3.org/2000/svg" xmlns:xlink="http://www.w3.org/1999/xlink" x="0px" y="0px"
	 viewBox="0 0 504 288" style="enable-background:new 0 0 504 288;" xml:space="preserve">
<style type="text/css">
	.st0{fill:#FFFFFF;}
	.st1{clip-path:url(#SVGID_2_);}
	.st2{fill:url(#SVGID_3_);}
</style>
<title>halfwave</title>
<rect x="16.2" y="-17.7" transform="matrix(4.014247e-03 -1 1 4.014247e-03 45.1507 487.8562)" class="st0" width="502.6" height="477.9"/>
<g>
	<defs>
		
			<rect id="SVGID_1_" x="16.2" y="-17.7" transform="matrix(4.014247e-03 -1 1 4.014247e-03 45.1507 487.8562)" width="502.6" height="477.9"/>
	</defs>
	<clipPath id="SVGID_2_">
		<use xlink:href="#SVGID_1_"  style="overflow:visible;"/>
	</clipPath>
	<g class="st1">
		<linearGradient id="SVGID_3_" gradientUnits="userSpaceOnUse" x1="64" y1="202.13" x2="546.27" y2="202.13">
			<stop  offset="0" style="stop-color:#0D98BA"/>
			<stop  offset="0.4365" style="stop-color:#135EA6"/>
			<stop  offset="0.8101" style="stop-color:#183397"/>
			<stop  offset="1" style="stop-color:#1A2391"/>
		</linearGradient>
		<path class="st2" d="M460.7-114.9c15.4,37.9,12.6,99-2,138.7S420.4,84,396.9,90.9s-47.4,4.3-71-0.4
			C232.6,72,215.6,193.2,192.6,233.8c-25.6,44.9-76.7,15.7-105.5,46.1c-14.4,15.2-25.7,50.7-20.6,82.8L64,499.4l470.1,32l12.1-658.5
			L460.7-114.9z"/>
	</g>
</g>
</svg>
